<?xml version="1.0" encoding="UTF-8" standalone="no"?>
<svg
   viewBox="0 0 512 512"
   fill="none"
   stroke="#e87f24"
   stroke-width="2"
   stroke-linecap="round"
   stroke-linejoin="round"
   version="1.1"
   id="svg1"
   sodipodi:docname="Gear.svg"
   width="512"
   height="512"
   xml:space="preserve"
   inkscape:version="1.4.4 (dcaf3e7, 2026-05-05)"
   xmlns:inkscape="http://www.inkscape.org/namespaces/inkscape"
   xmlns:sodipodi="http://sodipodi.sourceforge.net/DTD/sodipodi-0.dtd"
   xmlns="http://www.w3.org/2000/svg"
   xmlns:svg="http://www.w3.org/2000/svg"><defs
     id="defs1" /><sodipodi:namedview
     id="namedview1"
     pagecolor="#ffffff"
     bordercolor="#000000"
     borderopacity="0.25"
     inkscape:showpageshadow="2"
     inkscape:pageopacity="0.0"
     inkscape:pagecheckerboard="0"
     inkscape:deskcolor="#d1d1d1"
     showgrid="true"
     inkscape:zoom="1.1523438"
     inkscape:cx="-12.149153"
     inkscape:cy="199.15932"
     inkscape:window-width="1920"
     inkscape:window-height="1129"
     inkscape:window-x="-8"
     inkscape:window-y="-8"
     inkscape:window-maximized="1"
     inkscape:current-layer="svg1"><inkscape:grid
       id="grid1"
       units="px"
       originx="0"
       originy="0"
       spacingx="8"
       spacingy="8"
       empcolor="#0099e5"
       empopacity="0.30196078"
       color="#0099e5"
       opacity="0.14901961"
       empspacing="5"
       enabled="true"
       visible="true" /></sodipodi:namedview><path
     id="path41"
     style="fill:#ff6600;stroke:none"
     d="M 241.49219 8 L 233.49219 40 L 201.49219 48 L 185.49219 16 L 161.49219 24 L 161.49219 64 L 137.49219 80 L 97.492188 64 L 81.492188 80 L 65.492188 96 L 81.492188 136 L 65.492188 160 L 25.492188 160 L 17.492188 184 L 49.492188 200 L 41.492188 232 L 9.4921875 240 L 9.4921875 256 L 9.4921875 272 L 41.492188 280 L 49.492188 312 L 17.492188 328 L 25.492188 352 L 65.492188 352 L 81.492188 376 L 65.492188 416 L 81.492188 432 L 97.492188 448 L 137.49219 432 L 161.49219 448 L 161.49219 488 L 185.49219 496 L 201.49219 464 L 233.49219 472 L 241.49219 504 L 256 504 L 257.49219 504 L 272 504 L 280 472 L 312 464 L 328 496 L 352 488 L 352 448 L 376 432 L 416 448 L 432 432 L 448 416 L 432 376 L 448 352 L 488 352 L 496 328 L 464 312 L 472 280 L 504 272 L 504 256 L 504 240 L 472 232 L 464 200 L 496 184 L 488 160 L 448 160 L 432 136 L 448 96 L 432 80 L 416 64 L 376 80 L 352 64 L 352 24 L 328 16 L 312 48 L 280 40 L 272 8 L 257.49219 8 L 256 8 L 241.49219 8 z M 224 104 L 296 104 L 280 176 L 240 176 L 224 104 z M 184 120 L 216 184 L 184 216 L 120 184 L 184 120 z M 336 120 L 400 184 L 336 216 L 304 184 L 336 120 z M 248 208 L 272 208 L 288 216 L 304 232 L 312 248 L 312 272 L 304 288 L 288 304 L 272 312 L 248 312 L 232 304 L 216 288 L 208 272 L 208 248 L 216 232 L 232 216 L 248 208 z M 104 224 L 176 240 L 176 280 L 104 296 L 104 224 z M 416 224 L 416 296 L 344 280 L 344 240 L 416 224 z M 184 304 L 216 336 L 184 400 L 120 336 L 184 304 z M 336 304 L 400 336 L 336 400 L 304 336 L 336 304 z M 240 344 L 280 344 L 296 416 L 224 416 L 240 344 z " /></svg>
